<?xml version="1.0" encoding="UTF-8" standalone="no"?>
<!DOCTYPE svg PUBLIC "-//W3C//DTD SVG 1.1//EN" "http://www.w3.org/Graphics/SVG/1.1/DTD/svg11.dtd">
<!-- Created with Vectornator (http://vectornator.io/) -->
<svg height="100%" stroke-miterlimit="10" style="fill-rule:nonzero;clip-rule:evenodd;stroke-linecap:round;stroke-linejoin:round;" version="1.1" viewBox="0 0 1024 1024" width="100%" xml:space="preserve" xmlns="http://www.w3.org/2000/svg" xmlns:vectornator="http://vectornator.io" xmlns:xlink="http://www.w3.org/1999/xlink">
<defs/>
<g id="Layer-1" vectornator:layerName="Layer 1">
<path d="M0 2.84217e-14L1024 2.84217e-14L1024 1024L0 1024L0 2.84217e-14Z" fill="#f1f5f9" fill-rule="nonzero" opacity="1" stroke="none"/>
<path d="M5.68434e-14 679.22L1024 679.22L1024 653.62L5.68434e-14 653.62L5.68434e-14 679.22Z" fill="#1e293b" fill-opacity="0.2" fill-rule="nonzero" opacity="1" stroke="none"/>
<path d="M5.68434e-14 799.003L1024 799.003L1024 773.403L5.68434e-14 773.403L5.68434e-14 799.003Z" fill="#1e293b" fill-opacity="0.2" fill-rule="nonzero" opacity="1" stroke="none"/>
<path d="M5.68434e-14 738.86L1024 738.86L1024 713.26L5.68434e-14 713.26L5.68434e-14 738.86Z" fill="#1e293b" fill-opacity="0.2" fill-rule="nonzero" opacity="1" stroke="none"/>
<path d="M711.439 591.202L962 662.396C945.17 728.447 918.662 783.622 882.477 827.92C846.292 872.218 801.376 905.639 747.729 928.183C694.083 950.728 625.815 962 542.926 962C442.365 962 360.212 948.256 296.467 920.767C232.722 893.279 177.708 844.927 131.425 775.711C85.1417 706.496 62 617.9 62 509.924C62 365.955 102.708 255.309 184.125 177.985C265.541 100.662 380.724 62 529.672 62C646.222 62 737.842 84.149 804.532 128.447C871.222 172.745 920.766 240.774 953.164 332.534L700.71 385.336C691.874 358.836 682.617 339.456 672.94 327.194C656.951 306.628 637.386 290.807 614.244 279.732C591.102 268.658 565.226 263.121 536.614 263.121C471.818 263.121 422.168 287.643 387.666 336.687C361.579 373.074 348.536 430.227 348.536 508.144C348.536 604.65 364.104 670.8 395.24 706.595C426.376 742.389 470.135 760.286 526.516 760.286C581.215 760.286 622.554 745.85 650.534 716.977C678.515 688.104 698.816 646.179 711.439 591.202Z" fill="#ffffff" fill-opacity="0.4" fill-rule="nonzero" opacity="0" stroke="none"/>
<g opacity="1">
<path d="M277.816 489.435L400.21 489.435L400.21 862.628L591.23 862.628L591.23 984.549L277.816 984.549L277.816 489.435Z" fill="#1e293b" fill-rule="nonzero" opacity="1" stroke="none"/>
<path d="M625.544 820.749L741.993 811.631C744.515 835.272 749.649 853.284 757.394 865.667C770.002 885.706 788.015 895.726 811.431 895.726C828.903 895.726 842.367 890.603 851.823 880.359C861.28 870.114 866.008 858.237 866.008 844.728C866.008 831.894 861.505 820.412 852.499 810.28C843.493 800.148 822.598 790.579 789.816 781.572C736.139 766.487 697.863 746.448 674.988 721.456C651.932 696.464 640.404 664.605 640.404 625.879C640.404 600.436 646.303 576.401 658.101 553.773C669.899 531.145 687.641 513.358 711.327 500.412C735.014 487.465 767.481 480.992 808.729 480.992C859.344 480.992 897.935 492.756 924.503 516.285C951.071 539.813 966.877 577.245 971.92 628.58L856.552 637.024C853.49 614.733 847.05 598.522 837.233 588.39C827.417 578.258 813.862 573.193 796.571 573.193C782.341 573.193 771.624 576.964 764.419 584.507C757.214 592.049 753.611 601.224 753.611 612.032C753.611 619.912 756.583 627.004 762.527 633.309C768.291 639.838 781.981 645.917 803.595 651.546C857.092 665.956 895.413 680.535 918.559 695.282C941.705 710.03 958.546 728.324 969.084 750.164C979.621 772.003 984.889 796.433 984.889 823.451C984.889 855.198 977.865 884.468 963.815 911.261C949.765 938.054 930.132 958.375 904.915 972.222C879.697 986.069 847.906 992.992 809.539 992.992C742.173 992.992 695.522 976.781 669.584 944.359C643.646 911.937 628.966 870.733 625.544 820.749Z" fill="#1e293b" fill-rule="nonzero" opacity="1" stroke="none"/>
</g>
<path d="M5.68434e-14 708.547L1024 708.547L1024 682.947L5.68434e-14 682.947L5.68434e-14 708.547Z" fill="#1e293b" fill-opacity="0.2" fill-rule="nonzero" opacity="1" stroke="none"/>
<path d="M5.68434e-14 768.435L1024 768.435L1024 742.835L5.68434e-14 742.835L5.68434e-14 768.435Z" fill="#1e293b" fill-opacity="0.2" fill-rule="nonzero" opacity="1" stroke="none"/>
<path d="M5.68434e-14 649.512L1024 649.512L1024 623.912L5.68434e-14 623.912L5.68434e-14 649.512Z" fill="#1e293b" fill-opacity="0.2" fill-rule="nonzero" opacity="1" stroke="none"/>
<path d="M5.68434e-14 828.876L1024 828.876L1024 803.276L5.68434e-14 803.276L5.68434e-14 828.876Z" fill="#1e293b" fill-opacity="0.2" fill-rule="nonzero" opacity="1" stroke="none"/>
</g>
</svg>
