<?xml version="1.0" encoding="UTF-8" standalone="no"?>
<svg
   version="1.1"
   id="Layer_1"
   x="0px"
   y="0px"
   width="800"
   viewBox="0 0 800 800"
   enable-background="new 0 0 816 592"
   xml:space="preserve"
   height="800"
   xmlns="http://www.w3.org/2000/svg"
   xmlns:svg="http://www.w3.org/2000/svg"><defs
   id="defs1" />
<rect
   style="display:none;fill:#ffffff;stroke-width:1.21891"
   id="rect1"
   width="800"
   height="800"
   x="0"
   y="0" /><circle
   style="opacity:1;fill:#f4f4f5;fill-opacity:1;stroke-width:1.09747"
   id="path2"
   cx="400"
   cy="400"
   r="400" /><path
   fill="#000000"
   opacity="1"
   stroke="none"
   d="m 212.90508,560.51216 c -28.16645,-0.0185 -55.83287,-0.0374 -83.49932,-0.0562 -31.905471,-0.0218 -61.929023,-21.74005 -71.341187,-52.19653 -7.102337,-22.98215 -2.648361,-44.08829 13.363511,-61.93647 11.037735,-12.30355 25.663338,-18.96231 42.117166,-20.8107 4.54922,-0.51107 6.74134,-2.48342 8.37382,-6.36023 9.26947,-22.01321 24.47139,-38.63494 45.65333,-49.74591 10.43073,-5.47142 21.4968,-9.07641 33.18569,-10.26812 5.1577,-0.52587 8.09007,-2.48445 9.82356,-7.43338 8.95207,-25.5571 22.72243,-48.15186 42.3407,-66.96947 28.18957,-27.03911 61.69711,-42.40309 100.70248,-45.77706 41.99961,-3.63296 79.9545,7.26212 113.61502,32.3051 21.14579,15.73215 38.34491,35.11777 48.14576,60.06188 4.94763,12.59204 7.98162,25.66717 7.91638,39.38901 -0.15845,33.3323 -0.1297,66.66583 -0.0798,99.99871 0.0211,14.094 7.05328,23.35593 19.49603,25.85633 2.42175,0.4866 4.96814,0.48025 7.45733,0.4837 22.16651,0.0307 44.33381,0.10663 66.49897,-0.0674 4.65338,-0.0366 6.18957,1.45779 5.76318,6.14468 -0.48138,5.29163 -0.26031,10.65744 -0.16211,15.98764 0.0594,3.22846 -1.33661,4.4242 -4.49072,4.41669 -32.6659,-0.078 -65.34992,0.57025 -97.99249,-0.31964 -27.48984,-0.74942 -47.30509,-22.47656 -47.22052,-50.07486 0.0648,-21.16681 -1.03882,-42.3216 -0.88157,-63.46997 0.49344,-66.36078 -54.43975,-110.4063 -103.40487,-118.36608 -39.88205,-6.48323 -75.47129,3.21962 -106.26404,29.00779 -17.20982,14.41276 -30.80638,31.90159 -36.02672,54.46904 -1.25323,5.41772 -4.0193,5.74667 -8.8537,5.56607 -39.20236,-1.46476 -69.98187,22.42306 -79.66554,61.76394 -1.15399,4.68821 -2.64087,6.07795 -7.69092,5.48661 -16.64387,-1.94886 -31.945519,0.96505 -43.408532,14.70074 -14.526863,17.40695 -12.485237,44.40039 4.955719,58.85642 6.331032,5.24749 14.016733,8.02591 22.637143,7.97485 79.65912,-0.47168 159.31894,-0.82492 238.97861,-1.20432 7.49978,-0.0357 15.00076,0.0586 22.49966,-0.032 55.48718,-0.67062 110.98401,-0.48599 166.46417,-1.2345 33.48621,-0.45181 66.95807,0.71283 100.43817,-0.23935 18.43994,-0.52444 31.12085,-10.6521 33.81147,-28.14813 2.80322,-18.22803 -11.59308,-36.05978 -30.17286,-36.79226 -11.81536,-0.46579 -23.66424,-0.003 -35.49414,-0.19755 -29.41406,-0.48361 -54.64129,-17.85409 -63.4013,-44.9172 -13.4643,-41.5965 10.60498,-79.80559 48.82196,-88.74196 4.99627,-1.16829 10.1756,-1.61404 15.3681,-1.61005 42.33301,0.0325 84.66602,0.0149 126.99902,0.0176 6.43384,4.1e-4 6.7945,0.34603 6.82111,6.77854 0.0303,7.33314 0.0397,14.66665 0.004,21.99974 -0.0299,6.13092 -0.38001,6.51231 -6.55921,6.51736 -31.66638,0.0259 -63.33337,-0.10348 -94.9989,0.0614 -17.64898,0.0919 -32.27264,14.9133 -32.30059,32.22297 -0.028,17.32562 14.19006,32.1452 31.48449,32.4841 11.99512,0.23507 24.01312,-0.32163 35.99481,0.14538 25.69281,1.0014 45.38312,12.85886 57.86457,35.17807 22.54175,40.30878 -1.25086,90.04978 -46.85639,98.93842 -2.92914,0.57089 -5.9306,1.08853 -8.89904,1.09201 -44.99958,0.0527 -90.01301,0.70398 -134.99488,-0.19867 -43.32248,-0.86936 -86.64075,-0.69773 -129.95706,-0.94345 -67.49063,-0.38285 -134.98614,0.0939 -202.97958,0.20672 z"
   id="path1"
   style="display:inline;fill:#27272a;fill-opacity:1" />
</svg>
